<svg width="113" height="77" viewBox="0 0 113 77" fill="none" xmlns="http://www.w3.org/2000/svg">
<path d="M91.468 35.1966C91.468 35.1966 95.447 7.75996 71.6853 1.26026C45.8891 -5.80056 39.8419 19.1111 39.8419 19.1111C39.8419 19.1111 32.3335 16.9835 25.3983 22.7817C19.9693 27.3175 19.0363 35.3135 19.0363 35.3135C19.0363 35.3135 8.45935 34.9395 3.91832 42.5263C-0.397902 49.7391 3.91832 54.4736 3.91832 54.4736L66.3462 51.8667L104.776 52.1005C104.776 52.1005 107.553 44.5955 102.214 39.3934C96.8633 34.203 91.468 35.1966 91.468 35.1966Z" fill="#E2EBEE"/>
<path d="M49.3101 38.9945C49.3101 38.9945 54.0871 43.9628 66.5974 43.1328C79.1077 42.3028 85.6945 37.6969 87.1782 36.9838C88.6619 36.2707 90.3591 34.6224 90.9324 35.8031C91.5056 36.9838 90.2467 40.2921 88.5495 42.6652C86.841 45.0266 85.8856 46.4644 85.5933 47.5165C85.3685 48.3465 89.1227 49.5273 96.1703 49.878C102.195 50.1819 105.994 48.9194 105.994 48.9194C105.994 48.9194 106.163 52.8589 104.69 55.9334C103.319 58.7741 101.892 59.6976 99.621 60.1769C98.4521 60.4224 76.3876 60.4107 57.403 60.8783C38.4183 61.346 13.6225 62.1759 9.41869 60.7614C5.21487 59.3469 4.18078 56.5764 3.64125 55.5009C2.69707 53.6539 2.49475 50.7664 2.49475 50.7664C2.49475 50.7664 7.14818 53.1979 13.7462 52.251C20.3441 51.3041 23.8623 47.762 24.7728 47.3997C25.6832 47.0489 29.9994 49.2934 36.8222 47.5165C46.3539 45.0266 49.3101 38.9945 49.3101 38.9945Z" fill="#B9CED3"/>
<path d="M2 60H111" stroke="#1C274C" stroke-width="3.75" stroke-linecap="round" stroke-linejoin="round"/>
<path d="M25 75H88" stroke="#1C274C" stroke-width="3.75" stroke-linecap="round" stroke-linejoin="round"/>
<path opacity="0.5" d="M2 67H111" stroke="#1C274C" stroke-width="3.75" stroke-linecap="round" stroke-linejoin="round"/>
</svg>
