<svg width="16" height="19" viewBox="0 0 16 19" fill="none" xmlns="http://www.w3.org/2000/svg">
<path d="M8 17C11.281 17 14 14.54 14 11.435C14 9.49451 13.0138 7.53228 11.8986 5.92313C10.7758 4.30314 9.4812 2.98274 8.78224 2.31574C8.34104 1.89475 7.65896 1.89475 7.21776 2.31575C6.5188 2.98274 5.22413 4.30314 4.10144 5.92313C2.98626 7.53228 2 9.49451 2 11.435C2 14.54 4.71904 17 8 17Z" stroke="white" stroke-width="2.5"/>
<path d="M11 10.25C10.606 10.25 10.216 10.1724 9.85198 10.0216C9.48797 9.87087 9.15726 9.64992 8.87868 9.3713C8.6001 9.09275 8.37912 8.762 8.22836 8.39802C8.07759 8.03405 8 7.64398 8 7.25" stroke="white" stroke-width="2.5" stroke-linecap="round"/>
</svg>
