<svg width="104" height="104" viewBox="0 0 104 104" fill="none" xmlns="http://www.w3.org/2000/svg">
<path d="M89.468 35.1966C89.468 35.1966 93.447 7.75996 69.6853 1.26026C43.8891 -5.80056 37.8419 19.1111 37.8419 19.1111C37.8419 19.1111 30.3335 16.9835 23.3983 22.7817C17.9693 27.3175 17.0363 35.3135 17.0363 35.3135C17.0363 35.3135 6.45935 34.9395 1.91832 42.5263C-2.3979 49.7391 1.91832 54.4736 1.91832 54.4736L64.3462 51.8667L102.776 52.1005C102.776 52.1005 105.553 44.5955 100.214 39.3934C94.8633 34.203 89.468 35.1966 89.468 35.1966Z" fill="#E2EBEE"/>
<path d="M47.3101 38.9945C47.3101 38.9945 52.0871 43.9628 64.5974 43.1328C77.1077 42.3028 83.6945 37.6969 85.1782 36.9838C86.6619 36.2707 88.3591 34.6224 88.9324 35.8031C89.5056 36.9838 88.2467 40.2921 86.5495 42.6652C84.841 45.0266 83.8856 46.4644 83.5933 47.5166C83.3685 48.3465 87.1227 49.5273 94.1703 49.878C100.195 50.1819 103.994 48.9194 103.994 48.9194C103.994 48.9194 104.163 52.8589 102.69 55.9334C101.319 58.7741 99.8916 59.6976 97.621 60.1769C96.4521 60.4224 74.3876 60.4107 55.403 60.8783C36.4183 61.3459 11.6225 62.1759 7.41869 60.7614C3.21487 59.3469 2.18078 56.5764 1.64125 55.5009C0.697075 53.6539 0.494751 50.7664 0.494751 50.7664C0.494751 50.7664 5.14818 53.1979 11.7462 52.251C18.3441 51.3041 21.8623 47.762 22.7728 47.3997C23.6832 47.0489 27.9994 49.2934 34.8222 47.5166C44.3539 45.0266 47.3101 38.9945 47.3101 38.9945Z" fill="#B9CED3"/>
<path d="M31.5398 66.3725C30.0561 65.8114 23.6154 70.616 21.3 77.0222C17.883 86.4795 30.0561 89.6358 32.6188 80.5292C33.5967 77.0689 33.5855 67.1441 31.5398 66.3725Z" fill="#4FC2F7"/>
<path d="M79.659 73.27C78.3439 72.6621 73.1172 76.8004 70.7455 80.2724C68.475 83.5924 66.4518 89.2036 72.0269 92.0794C78.1078 95.2006 80.8729 88.4087 81.1314 83.4754C81.3675 79.0098 80.8167 73.8077 79.659 73.27Z" fill="#4FC2F7"/>
<path d="M53.1884 84.4808C51.5361 84.0717 45.1967 89.4257 42.9262 94.4174C38.3739 104.424 52.3567 107.955 54.0877 98.357C55.1892 92.2664 54.5373 84.8081 53.1884 84.4808Z" fill="#4FC2F7"/>
<path d="M47.2539 92.2542C45.9388 91.7048 43.3761 95.0598 43.6571 98.0408C43.9493 101.022 46.3098 101.291 47.4338 99.6424C48.94 97.4563 48.5578 92.792 47.2539 92.2542Z" fill="#AFE6F8"/>
<path d="M25.268 74.1462C24.0203 73.5383 21.8847 77.0921 21.9072 78.9275C21.9634 82.6683 24.616 82.9138 25.8525 81.0668C27.0889 79.2314 27.0327 75.0113 25.268 74.1462Z" fill="#AFE6F8"/>
<path d="M73.7693 81.4059C72.2856 80.6694 69.7341 84.0712 69.9252 86.5378C70.2624 90.793 73.5108 90.5358 74.6011 88.2095C75.6914 85.8832 75.1069 82.0722 73.7693 81.4059Z" fill="#AFE6F8"/>
</svg>
