<svg width="60" height="68" viewBox="0 0 60 68" fill="none" xmlns="http://www.w3.org/2000/svg">
<path d="M12.0837 34.5598C12.0837 39.1732 13.9164 43.5977 17.1786 46.8598C20.4408 50.122 24.8652 51.9547 29.4786 51.9547C34.092 51.9547 38.5165 50.122 41.7787 46.8598C45.0408 43.5977 46.8735 39.1732 46.8735 34.5598C46.8735 32.2755 46.4236 30.0135 45.5494 27.9031C44.6752 25.7926 43.3939 23.875 41.7787 22.2598C40.1634 20.6445 38.2458 19.3632 36.1353 18.489C34.0249 17.6148 31.7629 17.1649 29.4786 17.1649C27.1943 17.1649 24.9323 17.6148 22.8219 18.489C20.7114 19.3632 18.7938 20.6445 17.1786 22.2598C15.5633 23.875 14.282 25.7926 13.4078 27.9031C12.5337 30.0135 12.0837 32.2755 12.0837 34.5598Z" fill="#5FCEFF"/>
<path d="M29.6684 68C29.244 68 28.837 67.8314 28.5369 67.5314C28.2369 67.2313 28.0683 66.8243 28.0683 66.3999V1.60008C28.0683 1.17571 28.2369 0.768724 28.5369 0.468651C28.837 0.168579 29.244 0 29.6684 0C30.0927 0 30.4997 0.168579 30.7998 0.468651C31.0999 0.768724 31.2684 1.17571 31.2684 1.60008V66.3999C31.2684 66.8243 31.0999 67.2313 30.7998 67.5314C30.4997 67.8314 30.0927 68 29.6684 68Z" fill="#4F46A3"/>
<path d="M29.6684 19.8223C29.4583 19.8223 29.2502 19.781 29.0561 19.7006C28.8619 19.6202 28.6855 19.5023 28.5369 19.3537L18.9205 9.73706C18.6254 9.43598 18.461 9.0306 18.4631 8.60901C18.4652 8.18742 18.6336 7.78369 18.9317 7.48558C19.2299 7.18747 19.6336 7.01906 20.0552 7.01695C20.4768 7.01484 20.8821 7.17921 21.1832 7.47432L29.6684 15.9598L38.1536 7.47432C38.3022 7.32574 38.4786 7.20787 38.6727 7.12745C38.8668 7.04702 39.0749 7.00563 39.285 7.00562C39.4951 7.0056 39.7032 7.04698 39.8973 7.12738C40.0915 7.20778 40.2679 7.32564 40.4165 7.47421C40.5651 7.62278 40.6829 7.79917 40.7633 7.99329C40.8438 8.18742 40.8852 8.39549 40.8852 8.60561C40.8852 8.81574 40.8438 9.02381 40.7634 9.21794C40.683 9.41207 40.5652 9.58847 40.4166 9.73706L30.7999 19.3537C30.4997 19.6537 30.0928 19.8222 29.6684 19.8223ZM20.0517 59.5216C19.7353 59.5217 19.4259 59.4279 19.1627 59.2521C18.8995 59.0763 18.6944 58.8264 18.5733 58.534C18.4521 58.2416 18.4204 57.9199 18.4822 57.6095C18.544 57.2991 18.6964 57.014 18.9203 56.7902L28.5367 47.1736C28.6853 47.025 28.8617 46.9071 29.0558 46.8266C29.2499 46.7462 29.458 46.7048 29.6681 46.7047C29.8783 46.7047 30.0864 46.7461 30.2805 46.8265C30.4747 46.9069 30.6511 47.0248 30.7997 47.1733L40.4164 56.79C40.7163 57.0902 40.8849 57.4971 40.8849 57.9215C40.8849 58.3459 40.7163 58.7528 40.4164 59.053C40.1162 59.3529 39.7092 59.5213 39.2849 59.5213C38.8605 59.5213 38.4536 59.3529 38.1534 59.053L29.6682 50.5676L21.183 59.0528C21.0346 59.2016 20.8583 59.3197 20.6642 59.4001C20.47 59.4806 20.2619 59.5219 20.0517 59.5216ZM57.726 51.8001C57.4456 51.8 57.1702 51.7261 56.9275 51.5857L0.80923 19.1855C0.625788 19.0812 0.464788 18.9417 0.3355 18.7749C0.206211 18.6081 0.111187 18.4174 0.0558982 18.2138C0.000609621 18.0101 -0.0138517 17.7975 0.0133473 17.5883C0.0405464 17.379 0.108869 17.1772 0.21438 16.9945C0.319891 16.8117 0.460507 16.6517 0.628134 16.5235C0.79576 16.3953 0.987085 16.3015 1.19109 16.2476C1.3951 16.1937 1.60776 16.1806 1.81684 16.2092C2.02591 16.2378 2.22726 16.3075 2.4093 16.4142L58.5274 48.8139C58.8949 49.0261 59.163 49.3756 59.2729 49.7855C59.3828 50.1955 59.3253 50.6322 59.1132 50.9998C58.9727 51.2433 58.7705 51.4455 58.5269 51.586C58.2834 51.7265 58.0071 51.8003 57.726 51.8001Z" fill="#4F46A3"/>
<path d="M2.86693 31.2316C2.4786 31.2316 2.10351 31.0904 1.81158 30.8344C1.51965 30.5783 1.3308 30.2248 1.28025 29.8398C1.2297 29.4548 1.32089 29.0645 1.53683 28.7417C1.75276 28.419 2.0787 28.1858 2.45388 28.0856L14.0451 24.9796L10.9393 13.3889C10.8295 12.979 10.887 12.5423 11.0991 12.1748C11.3113 11.8073 11.6607 11.5391 12.0706 11.4293C12.2735 11.3748 12.4852 11.3609 12.6935 11.3883C12.9019 11.4157 13.1028 11.4838 13.2847 11.5889C13.4667 11.694 13.6262 11.8338 13.7541 12.0005C13.882 12.1673 13.9758 12.3575 14.0302 12.5605L17.5501 25.6969C17.6045 25.8999 17.6184 26.1116 17.591 26.3199C17.5636 26.5282 17.4955 26.7291 17.3904 26.9111C17.2854 27.0931 17.1455 27.2526 16.9788 27.3806C16.8121 27.5085 16.6218 27.6024 16.4189 27.6568L3.28203 31.1767C3.14665 31.213 3.0071 31.2315 2.86693 31.2316ZM45.5755 55.8894C45.2234 55.889 44.8812 55.7726 44.602 55.5581C44.3228 55.3437 44.1221 55.0431 44.0309 54.7031L40.5112 41.5664C40.4014 41.1565 40.4589 40.7198 40.6711 40.3523C40.8833 39.9848 41.2328 39.7166 41.6427 39.6068L54.7795 36.0869C55.1889 35.9787 55.6244 36.0372 55.9908 36.2496C56.3571 36.4619 56.6243 36.8108 56.7338 37.2198C56.8434 37.6288 56.7864 38.0645 56.5753 38.4316C56.3643 38.7986 56.0163 39.067 55.6077 39.178L44.0165 42.284L47.1223 53.8749C47.1859 54.1121 47.194 54.3608 47.1461 54.6016C47.0982 54.8424 46.9955 55.069 46.8459 55.2638C46.6963 55.4586 46.504 55.6163 46.2837 55.7248C46.0633 55.8333 45.821 55.8896 45.5755 55.8894ZM1.61064 51.8001C1.25825 51.8003 0.91563 51.6843 0.635938 51.4699C0.356246 51.2556 0.155125 50.9549 0.063787 50.6146C-0.0275513 50.2742 -0.0039998 49.9132 0.130787 49.5877C0.265573 49.2621 0.504057 48.9901 0.809231 48.8139L56.9273 16.4142C57.2946 16.2053 57.7296 16.1503 58.1374 16.261C58.5452 16.3717 58.8926 16.6392 59.1038 17.0051C59.3151 17.371 59.3731 17.8056 59.2651 18.2141C59.1571 18.6226 58.8919 18.9718 58.5274 19.1855L2.40931 51.5854C2.16661 51.726 1.89111 51.8001 1.61064 51.8001Z" fill="#4F46A3"/>
<path d="M56.4696 31.2316C56.3325 31.2316 56.1932 31.2138 56.0547 31.1765L42.9181 27.6566C42.5082 27.5467 42.1587 27.2786 41.9465 26.9111C41.7343 26.5436 41.6768 26.1068 41.7866 25.6969L45.3063 12.5605C45.4173 12.1519 45.6857 11.804 46.0528 11.5929C46.4198 11.3818 46.8556 11.3248 47.2645 11.4344C47.6735 11.544 48.0224 11.8112 48.2348 12.1775C48.4471 12.5438 48.5056 12.9793 48.3974 13.3887L45.2917 24.9796L56.8826 28.0856C57.2578 28.1858 57.5838 28.419 57.7997 28.7418C58.0156 29.0645 58.1068 29.4548 58.0563 29.8398C58.0057 30.2248 57.8169 30.5783 57.5249 30.8344C57.233 31.0905 56.8579 31.2316 56.4696 31.2316ZM13.7608 55.8894C13.5153 55.8896 13.273 55.8333 13.0527 55.7248C12.8324 55.6163 12.6401 55.4585 12.4906 55.2638C12.341 55.069 12.2383 54.8424 12.1904 54.6016C12.1425 54.3607 12.1507 54.1121 12.2143 53.8749L15.32 42.284L3.72906 39.178C3.32046 39.067 2.9725 38.7986 2.76142 38.4316C2.55034 38.0645 2.49334 37.6288 2.60291 37.2198C2.71248 36.8108 2.97969 36.462 3.346 36.2496C3.71231 36.0373 4.14785 35.9787 4.55721 36.0869L17.6938 39.6068C18.1037 39.7167 18.4532 39.9848 18.6654 40.3523C18.8776 40.7198 18.9351 41.1566 18.8253 41.5665L15.3054 54.7031C15.2143 55.0432 15.0135 55.3438 14.7343 55.5582C14.4551 55.7727 14.1129 55.8891 13.7608 55.8894Z" fill="#4F46A3"/>
</svg>
