<svg width="171" height="171" viewBox="0 0 171 171" fill="none" xmlns="http://www.w3.org/2000/svg">
<path fill-rule="evenodd" clip-rule="evenodd" d="M85.5 37.4116C58.9389 37.4116 37.4062 58.9443 37.4062 85.5054C37.4062 112.066 58.9389 133.599 85.5 133.599C112.061 133.599 133.594 112.066 133.594 85.5054C133.594 58.9443 112.061 37.4116 85.5 37.4116ZM85.5 128.255C61.8886 128.255 42.75 109.114 42.75 85.5054C42.75 61.8967 61.8886 42.7554 85.5 42.7554C109.111 42.7554 128.25 61.8967 128.25 85.5054C128.25 109.114 109.111 128.255 85.5 128.255Z" fill="#FFDF5C"/>
<path fill-rule="evenodd" clip-rule="evenodd" d="M168.328 82.8281H141.609C140.132 82.8281 138.938 84.0225 138.938 85.5C138.938 86.9775 140.132 88.1719 141.609 88.1719H168.328C169.806 88.1719 171 86.9775 171 85.5C171 84.0225 169.806 82.8281 168.328 82.8281Z" fill="#F9EBB2"/>
<path fill-rule="evenodd" clip-rule="evenodd" d="M30.6115 97.4406L20.29 100.206C18.8632 100.593 18.0163 102.058 18.401 103.484C18.7831 104.909 20.2446 105.756 21.6741 105.368L31.9955 102.603C33.4196 102.221 34.2666 100.762 33.8845 99.3296C33.5025 97.9055 32.0356 97.0586 30.6115 97.4406Z" fill="#F9EBB2"/>
<path fill-rule="evenodd" clip-rule="evenodd" d="M131.777 58.7812C132.517 60.0611 134.15 60.4992 135.429 59.7565L158.568 46.3971C159.848 45.6623 160.286 44.0271 159.543 42.75C158.808 41.4702 157.173 41.032 155.896 41.7748L132.757 55.1341C131.478 55.8742 131.042 57.5014 131.777 58.7812Z" fill="#F9EBB2"/>
<path fill-rule="evenodd" clip-rule="evenodd" d="M47.7145 123.288C46.6725 122.244 44.9812 122.249 43.9365 123.288L36.3804 130.844C35.3357 131.889 35.3384 133.583 36.3831 134.623C37.4251 135.667 39.1137 135.667 40.1584 134.623L47.7145 127.066C48.7592 126.027 48.7592 124.33 47.7145 123.288Z" fill="#F9EBB2"/>
<path fill-rule="evenodd" clip-rule="evenodd" d="M112.219 39.2231C113.498 39.9579 115.131 39.525 115.871 38.2425L129.23 15.1041C129.971 13.8243 129.532 12.1891 128.25 11.4543C126.973 10.7142 125.343 11.1524 124.603 12.4295L111.246 35.5733C110.503 36.8532 110.941 38.4803 112.219 39.2231Z" fill="#F9EBB2"/>
<path fill-rule="evenodd" clip-rule="evenodd" d="M71.6704 137.115C70.249 136.733 68.7848 137.585 68.3974 139.004L65.632 149.326C65.2499 150.755 66.1022 152.217 67.5263 152.599C68.9504 152.986 70.412 152.139 70.794 150.71L73.5594 140.388C73.9468 138.969 73.0999 137.503 71.6704 137.115Z" fill="#F9EBB2"/>
<path fill-rule="evenodd" clip-rule="evenodd" d="M85.5001 32.0625C86.9803 32.0625 88.1746 30.8682 88.1773 29.3906V2.67188C88.1773 1.19433 86.983 0 85.5001 0C84.0279 0 82.8335 1.19433 82.8309 2.67188L82.8335 29.3906C82.8335 30.8682 84.0279 32.0625 85.5001 32.0625Z" fill="#F9EBB2"/>
<path fill-rule="evenodd" clip-rule="evenodd" d="M102.605 139.004C102.228 137.58 100.764 136.733 99.3322 137.115C97.908 137.497 97.0664 138.962 97.4431 140.388L100.209 150.71C100.593 152.139 102.06 152.981 103.487 152.599C104.914 152.217 105.755 150.758 105.371 149.326L102.605 139.004Z" fill="#F9EBB2"/>
<path fill-rule="evenodd" clip-rule="evenodd" d="M55.1395 38.2399C55.8742 39.5197 57.5094 39.9579 58.7812 39.2204C60.0637 38.4803 60.5046 36.8505 59.7645 35.568L46.4051 12.4295C45.6677 11.1524 44.0325 10.7142 42.75 11.4543C41.4755 12.1891 41.0373 13.8243 41.7747 15.1014L55.1395 38.2399Z" fill="#F9EBB2"/>
<path fill-rule="evenodd" clip-rule="evenodd" d="M127.069 123.283C126.032 122.244 124.338 122.244 123.291 123.283C122.246 124.328 122.254 126.022 123.291 127.061L130.847 134.617C131.894 135.667 133.586 135.656 134.628 134.617C135.672 133.572 135.672 131.889 134.625 130.839L127.069 123.283Z" fill="#F9EBB2"/>
<path fill-rule="evenodd" clip-rule="evenodd" d="M12.435 46.3971L35.5788 59.7512C36.8533 60.4913 38.4858 60.0531 39.2206 58.7813C39.9607 57.4988 39.5279 55.8689 38.248 55.1288L15.1069 41.7695C13.8298 41.0267 12.1946 41.4675 11.4545 42.75C10.7224 44.0245 11.1579 45.657 12.435 46.3971Z" fill="#F9EBB2"/>
<path fill-rule="evenodd" clip-rule="evenodd" d="M139.01 102.6L149.331 105.365C150.76 105.753 152.222 104.895 152.604 103.471C152.989 102.047 152.144 100.585 150.715 100.203L140.394 97.438C138.975 97.0506 137.505 97.8976 137.121 99.327C136.736 100.754 137.591 102.215 139.01 102.6Z" fill="#F9EBB2"/>
<path fill-rule="evenodd" clip-rule="evenodd" d="M32.0625 85.5C32.0652 84.0171 30.8735 82.8281 29.396 82.8228L2.67188 82.8281C1.197 82.8281 0 84.0171 0 85.5C0.00267188 86.9722 1.197 88.1718 2.67455 88.1718L29.396 88.1665C30.8682 88.1665 32.0652 86.9722 32.0625 85.5Z" fill="#F9EBB2"/>
<path fill-rule="evenodd" clip-rule="evenodd" d="M140.394 73.554L150.715 70.7886C152.145 70.4066 152.986 68.937 152.601 67.5102C152.222 66.0915 150.763 65.2445 149.331 65.6266L139.01 68.392C137.586 68.7687 136.739 70.2382 137.121 71.665C137.497 73.0891 138.97 73.9308 140.394 73.554Z" fill="#F9EBB2"/>
<path d="M85.5 128.25C109.11 128.25 128.25 109.11 128.25 85.5C128.25 61.8898 109.11 42.75 85.5 42.75C61.8898 42.75 42.75 61.8898 42.75 85.5C42.75 109.11 61.8898 128.25 85.5 128.25Z" fill="#F9EBB2"/>
<path fill-rule="evenodd" clip-rule="evenodd" d="M39.2229 112.219C38.4882 110.936 36.8556 110.495 35.5758 111.233L12.4347 124.598C11.1575 125.338 10.714 126.968 11.4541 128.25C12.1942 129.525 13.8294 129.963 15.1066 129.225L38.245 115.861C39.5195 115.126 39.963 113.499 39.2229 112.219Z" fill="#F9EBB2"/>
<path fill-rule="evenodd" clip-rule="evenodd" d="M123.291 47.7062C124.33 48.7563 126.022 48.7456 127.069 47.7062L134.625 40.1502C135.673 39.1055 135.667 37.4169 134.62 36.3722C133.583 35.3274 131.892 35.3274 130.847 36.3722L123.291 43.9282C122.244 44.9676 122.249 46.6642 123.291 47.7062Z" fill="#F9EBB2"/>
<path fill-rule="evenodd" clip-rule="evenodd" d="M58.7814 131.777C57.5015 131.037 55.8744 131.475 55.1343 132.747L41.7749 155.896C41.0401 157.17 41.4676 158.803 42.7501 159.543C44.0299 160.272 45.6625 159.834 46.4026 158.562L59.7566 135.419C60.494 134.147 60.0639 132.514 58.7814 131.777Z" fill="#F9EBB2"/>
<path fill-rule="evenodd" clip-rule="evenodd" d="M99.3349 33.8794C100.754 34.2668 102.215 33.4092 102.608 31.9904L105.373 21.6689C105.755 20.2395 104.903 18.7726 103.479 18.3959C102.06 18.0085 100.593 18.8554 100.211 20.2849L97.4459 30.6064C97.0531 32.0251 97.9108 33.492 99.3349 33.8794Z" fill="#F9EBB2"/>
<path fill-rule="evenodd" clip-rule="evenodd" d="M85.5 138.938C84.0225 138.932 82.8335 140.127 82.8281 141.604L82.8335 168.333C82.8335 169.8 84.0171 171 85.5 171C86.9775 171 88.1719 169.8 88.1745 168.328L88.1665 141.604C88.1665 140.132 86.9829 138.938 85.5 138.938Z" fill="#F9EBB2"/>
<path fill-rule="evenodd" clip-rule="evenodd" d="M68.4 31.9904C68.7713 33.4145 70.2462 34.2615 71.673 33.8794C73.0944 33.5027 73.9334 32.0331 73.562 30.6064L70.7966 20.2849C70.4092 18.8554 68.945 18.0085 67.5182 18.3959C66.0995 18.778 65.2471 20.2368 65.6346 21.6689L68.4 31.9904Z" fill="#F9EBB2"/>
<path fill-rule="evenodd" clip-rule="evenodd" d="M115.86 132.755C115.126 131.48 113.501 131.037 112.219 131.777C110.939 132.512 110.506 134.142 111.238 135.424L124.608 158.562C125.343 159.842 126.967 160.286 128.25 159.543C129.53 158.803 129.965 157.168 129.23 155.891L115.86 132.755Z" fill="#F9EBB2"/>
<path fill-rule="evenodd" clip-rule="evenodd" d="M43.9335 47.7064C44.9676 48.7618 46.6669 48.7511 47.7116 47.7064C48.7563 46.6724 48.7456 44.9811 47.7116 43.9284L40.1555 36.3723C39.1055 35.3276 37.4168 35.3329 36.3748 36.3776C35.3328 37.417 35.3274 39.1056 36.3775 40.1503L43.9335 47.7064Z" fill="#F9EBB2"/>
<path fill-rule="evenodd" clip-rule="evenodd" d="M158.57 124.597L135.424 111.243C134.147 110.509 132.519 110.936 131.782 112.224C131.039 113.499 131.483 115.126 132.755 115.866L155.904 129.225C157.178 129.96 158.805 129.532 159.545 128.25C160.28 126.967 159.842 125.338 158.57 124.597Z" fill="#F9EBB2"/>
<path fill-rule="evenodd" clip-rule="evenodd" d="M31.9931 68.3945L21.6689 65.6265C20.2368 65.2444 18.7753 66.0967 18.3959 67.5208C18.0111 68.9396 18.8528 70.4065 20.2849 70.7939L30.6063 73.5539C32.0251 73.944 33.4946 73.089 33.8794 71.6649C34.2668 70.2515 33.4118 68.79 31.9931 68.3945Z" fill="#F9EBB2"/>
<path fill-rule="evenodd" clip-rule="evenodd" d="M85.5 53.4429C84.0225 53.4429 82.8281 54.6372 82.8281 56.1147C82.8281 57.5923 84.0225 58.7866 85.5 58.7866C100.254 58.7866 112.219 70.7486 112.219 85.5054C112.219 86.9829 113.413 88.1772 114.891 88.1772C116.368 88.1772 117.562 86.9829 117.562 85.5054C117.562 67.7988 103.207 53.4429 85.5 53.4429Z" fill="#FFDF5C"/>
</svg>
