<svg width="104" height="94" viewBox="0 0 104 94" fill="none" xmlns="http://www.w3.org/2000/svg">
<path d="M48.9078 59L42 76.9948H54.6946L46.7865 94L68 70.7413H55.1309L59.4689 59H48.9078Z" fill="#FFDA44"/>
<path d="M89.468 35.1966C89.468 35.1966 93.447 7.75996 69.6853 1.26026C43.8891 -5.80056 37.8419 19.1111 37.8419 19.1111C37.8419 19.1111 30.3335 16.9835 23.3983 22.7817C17.9693 27.3175 17.0363 35.3135 17.0363 35.3135C17.0363 35.3135 6.45935 34.9395 1.91832 42.5263C-2.3979 49.7391 1.91832 54.4736 1.91832 54.4736L64.3462 51.8667L102.776 52.1005C102.776 52.1005 105.553 44.5955 100.214 39.3934C94.8633 34.203 89.468 35.1966 89.468 35.1966Z" fill="#E2EBEE"/>
<path d="M47.3101 38.9945C47.3101 38.9945 52.0871 43.9628 64.5974 43.1328C77.1077 42.3028 83.6945 37.6969 85.1782 36.9838C86.6619 36.2707 88.3591 34.6224 88.9324 35.8031C89.5056 36.9838 88.2467 40.2921 86.5495 42.6652C84.841 45.0266 83.8856 46.4644 83.5933 47.5165C83.3685 48.3465 87.1227 49.5273 94.1703 49.878C100.195 50.1819 103.994 48.9194 103.994 48.9194C103.994 48.9194 104.163 52.8589 102.69 55.9334C101.319 58.7741 99.8916 59.6976 97.621 60.1769C96.4521 60.4224 74.3876 60.4107 55.403 60.8783C36.4183 61.346 11.6225 62.1759 7.41869 60.7614C3.21487 59.3469 2.18078 56.5764 1.64125 55.5009C0.697075 53.6539 0.494751 50.7664 0.494751 50.7664C0.494751 50.7664 5.14818 53.1979 11.7462 52.251C18.3441 51.3041 21.8623 47.762 22.7728 47.3997C23.6832 47.0489 27.9994 49.2934 34.8222 47.5165C44.3539 45.0266 47.3101 38.9945 47.3101 38.9945Z" fill="#B9CED3"/>
</svg>
