<svg width="19" height="16" viewBox="0 0 19 16" fill="none" xmlns="http://www.w3.org/2000/svg">
<path d="M2.06772 10.4601C1.3559 9.53538 1 9.073 1 7.7C1 6.327 1.3559 5.86464 2.06772 4.93988C3.48902 3.09338 5.87267 1 9.375 1C12.8773 1 15.2609 3.09338 16.6823 4.93988C17.3941 5.86464 17.75 6.327 17.75 7.7C17.75 9.073 17.3941 9.53538 16.6823 10.4601C15.2609 12.3066 12.8773 14.4 9.375 14.4C5.87267 14.4 3.48902 12.3066 2.06772 10.4601Z" stroke="white" stroke-width="2"/>
<path d="M11.8875 7.7C11.8875 9.08765 10.7626 10.2125 9.37499 10.2125C7.98733 10.2125 6.86249 9.08765 6.86249 7.7C6.86249 6.31235 7.98733 5.1875 9.37499 5.1875C10.7626 5.1875 11.8875 6.31235 11.8875 7.7Z" stroke="white" stroke-width="2"/>
</svg>
